#!OML:ASF E:\emotionWalksFemale\Project 1\Capture day 1\Session 1\Female1.ASF
:FULLY-SPECIFIED
:DEGREES
3026
root 11.3604 15.3633 10.4886 -181.56 -173.241 -180.398
lowerback 11.2641 -3.03329 -3.53516
upperback -3.36252 -4.64427 -0.456736
thorax -9.70007 -2.0388 2.38984
lowerneck -3.07867 1.96958 -0.710455
upperneck 14.343 1.96835 5.381
head 4.73438 1.22934 1.87503
rclavicle -1.08338e-014 2.78299e-015
rhumerus -53.6334 -2.53496 -70.8779
rradius 47.6803
rwrist 7.67342
rhand 161.145 -236.224
rfingers 7.12502
rthumb -172.555 -266.073
lclavicle -1.08338e-014 2.78299e-015
lhumerus -44.954 6.67058 80.974
lradius 46.4642
lwrist -1.77644
lhand -10.8591 -33.504
lfingers 7.12502
lthumb 15.1563 -4.07906
rfemur -33.949 13.3563 19.2554
rtibia 30.9413
rfoot -8.49526 -17.8374
rtoes -9.21774
lfemur -2.18487 -7.18023 -29.6035
ltibia 27.823
lfoot -24.6048 6.97987
ltoes -0.688929
3027
root 11.3531 15.3572 10.521 -181.529 -173.348 -180.361
lowerback 11.3746 -3.05854 -3.54507
upperback -3.35695 -4.68635 -0.477961
thorax -9.75737 -2.05716 2.38782
lowerneck -3.28188 1.95348 -0.654087
upperneck 14.4831 1.94472 5.30758
head 4.81437 1.22078 1.84646
rclavicle -2.41026e-015 4.37326e-015
rhumerus -53.594 -2.51961 -71.0246
rradius 47.7789
rwrist 7.49132
rhand 161.179 -236.275
rfingers 7.12502
rthumb -172.522 -266.123
lclavicle -2.41026e-015 4.37326e-015
lhumerus -44.8477 6.59871 81.038
lradius 46.6483
lwrist -1.67073
lhand -10.8135 -33.5212
lfingers 7.12502
lthumb 15.2001 -4.09958
rfemur -33.9444 13.6308 19.0643
rtibia 30.4379
rfoot -8.2411 -18.1654
rtoes -8.22791
lfemur -2.14996 -6.86748 -29.5749
ltibia 27.9533
lfoot -24.6734 6.63045
ltoes -1.56233
3028
root 11.3477 15.3516 10.5602 -181.636 -173.366 -180.23
lowerback 11.5553 -3.03051 -3.62167
upperback -3.36643 -4.67475 -0.535943
thorax -9.87406 -2.04465 2.37905
lowerneck -3.48119 1.86632 -0.574198
upperneck 14.7455 1.82246 5.19416
head 4.93521 1.16388 1.79817
rclavicle 4.09993e-015 6.36111e-015
rhumerus -53.8384 -2.44306 -71.091
rradius 48.2146
rwrist 7.89121
rhand 161.827 -236.586
rfingers 7.12502
rthumb -171.897 -266.411
lclavicle 4.09993e-015 6.36111e-015
lhumerus -44.9449 6.46844 81.1106
lradius 46.9191
lwrist -1.44962
lhand -10.6667 -33.0283
lfingers 7.12502
lthumb 15.3415 -3.61737
rfemur -33.7766 13.8505 18.8701
rtibia 30.0274
rfoot -8.14531 -18.2996
rtoes -8.79714
lfemur -1.8886 -6.54473 -29.698
ltibia 27.9572
lfoot -24.719 6.52484
ltoes -2.92841
3029
root 11.3419 15.3425 10.6027 -181.764 -173.37 -180.005
lowerback 11.6884 -3.0005 -3.79407
upperback -3.4058 -4.67631 -0.608635
thorax -9.9892 -2.03288 2.40806
lowerneck -3.31128 1.81833 -0.621412
upperneck 14.7561 1.76062 5.2008
head 4.91069 1.12922 1.80299
rclavicle 2.17421e-014 5.56597e-015
rhumerus -54.1041 -2.33145 -71.0884
rradius 48.5926
rwrist 8.31429
rhand 162.739 -236.822
rfingers 7.12502
rthumb -171.017 -266.611
lclavicle 2.17421e-014 5.56597e-015
lhumerus -45.2004 6.47181 81.1063
lradius 47.2087
lwrist -1.39246
lhand -10.5428 -32.9225
lfingers 7.12502
lthumb 15.4609 -3.52075
rfemur -33.6186 14.1548 18.5499
rtibia 29.6562
rfoot -8.43798 -18.491
rtoes -9.34792
lfemur -1.59462 -6.25575 -29.9283
ltibia 27.9148
lfoot -24.7652 6.40492
ltoes -3.96989
3030
root 11.3357 15.3338 10.6413 -181.821 -173.502 -179.887
lowerback 11.6839 -3.01707 -3.85553
upperback -3.36859 -4.71111 -0.658505
thorax -9.94299 -2.04947 2.39371
lowerneck -3.09393 1.84691 -0.655352
upperneck 14.6243 1.80039 5.26464
head 4.83079 1.14634 1.82592
rclavicle 6.50274e-014 2.54444e-014
rhumerus -54.0333 -2.24868 -71.182
rradius 48.4315
rwrist 7.85266
rhand 161.947 -236.69
rfingers 7.12502
rthumb -171.781 -266.51
lclavicle 6.50274e-014 2.54444e-014
lhumerus -45.1536 6.39692 81.1528
lradius 47.3775
lwrist -1.21332
lhand -10.3801 -33.1971
lfingers 7.12502
lthumb 15.6176 -3.80752
rfemur -33.4759 14.3491 18.3417
rtibia 29.2297
rfoot -8.59109 -18.8128
rtoes -8.68532
lfemur -1.41549 -6.10782 -30.0116
ltibia 27.9498
lfoot -24.9186 6.0301
ltoes -3.60511
3031
root 11.3291 15.3283 10.6751 -181.831 -173.774 -179.943
lowerback 11.6532 -3.06912 -3.77319
upperback -3.26541 -4.76064 -0.643451
thorax -9.81265 -2.08312 2.3672
lowerneck -3.17169 1.88692 -0.676634
upperneck 14.5893 1.8503 5.32214
head 4.83074 1.17395 1.85017
rclavicle -2.01021e-014 1.19271e-015
rhumerus -53.822 -2.29791 -71.1698
rradius 48.3248
rwrist 7.88249
rhand 161.587 -236.865
rfingers 7.12502
rthumb -172.129 -266.699
lclavicle -2.01021e-014 1.19271e-015
lhumerus -44.8162 6.23478 81.3356
lradius 47.4708
lwrist -0.903242
lhand -10.2812 -33.162
lfingers 7.12502
lthumb 15.7128 -3.77996
rfemur -33.3173 14.6044 18.2458
rtibia 28.7492
rfoot -8.69541 -19.2785
rtoes -7.28544
lfemur -1.35816 -6.08665 -29.8915
ltibia 28.0919
lfoot -25.0684 5.66509
ltoes -3.31333
3032
root 11.3205 15.3202 10.7085 -181.778 -173.997 -179.985
lowerback 11.6019 -3.09874 -3.73663
upperback -3.22264 -4.78759 -0.614674
thorax -9.73386 -2.10039 2.37741
lowerneck -3.22286 1.88722 -0.839221
upperneck 14.568 1.84592 5.46506
head 4.8291 1.17231 1.92147
rclavicle 4.01297e-014 -5.1684e-015
rhumerus -53.7801 -2.34961 -71.1468
rradius 48.5895
rwrist 8.2734
rhand 162.361 -237.358
rfingers 7.12502
rthumb -171.381 -267.162
lclavicle 4.01297e-014 -5.1684e-015
lhumerus -44.653 6.14401 81.4927
lradius 47.6455
lwrist -0.802
lhand -10.3531 -32.9496
lfingers 7.12502
lthumb 15.6436 -3.5621
rfemur -33.2726 15.0331 18.0551
rtibia 28.2686
rfoot -8.86675 -19.855
rtoes -6.38669
lfemur -1.39262 -6.02732 -29.7807
ltibia 28.2815
lfoot -25.1991 5.21254
ltoes -2.52785
